# xmcd CD database file
#
# Track frame offsets:
#	150
#	12571
#	24025
#	38162
#	49547
#	65257
#	80510
#	93948
#	106939
#	122053
#	133473
#	148713
#
# Disc length: 2152 seconds
#
# Revision: 0
# Processed by: cddbd v1.5.2PL0 Copyright (c) Steve Scherf et al.
# Submitted via: CDex 1.51
#
DISCID=9a08660c
DTITLE=Die Hiatamadln - Lass Ma S Krach'n
DYEAR=2004
DGENRE=Volkstümlich
TTITLE0=Lass Ma's Krach'n
TTITLE1=Männer Gibt's Wie Sand Am Meer
TTITLE2=Mach Dein Herzenstürl Auf
TTITLE3=Hiatajodler
TTITLE4=Edelweiss-Augen
TTITLE5=Weil Wir 3 Madln San
TTITLE6=Auf Der Freiländeralm
TTITLE7=Ich Liebe Meine Heimat
TTITLE8=Jeder Tag Is A Wunder
TTITLE9=Boarisch Und Die Stimmung Steigt
TTITLE10=Zeit Is A Blatt Im Wind
TTITLE11=Aussen Hui, Innen Pfui
EXTD=YEAR: 2004
EXTT0=
EXTT1=
EXTT2=
EXTT3=
EXTT4=
EXTT5=
EXTT6=
EXTT7=
EXTT8=
EXTT9=
EXTT10=
EXTT11=
PLAYORDER=
